# xmcd
#
# Track frame offsets:
#   150
#   8060
#   18759
#   39004
#   76881
#   108726
#
# Disc length: 1588 seconds
#
# Revision: 0
# Processed by: cddbd v1.5.2PL0 Copyright (c) Steve Scherf et al.
# Submitted via: GXTranscoder 2.0.1939
#
DISCID=32063206
DTITLE=Riessersee - Riessersee
DYEAR=1900
DGENRE=Soundtrack
TTITLE0=Mir san di Riesserseerbuam
TTITLE1=Mir san di Schlachtenbummler
TTITLE2=Radio-Mix Glory Days on Ice
TTITLE3=Maxi-Mix Glory Days on Ice
TTITLE4=Karaoke-Mix Glory Days on Ice
TTITLE5=Riessersee (Williams Wetsox)
EXTD=
EXTT0=
EXTT1=
EXTT2=
EXTT3=
EXTT4=
EXTT5=
PLAYORDER=
